# xmcd
#
# Track frame offsets:
#	150
#	17111
#	31920
#	45829
#	66305
#	81821
#	94414
#	108649
#	123850
#	130565
#	149969
#	163858
#	167913
#	189703
#
# Disc length: 2841 seconds
# Revision: 0
# Processed by: cddbd v1.5.2PL0 Copyright (c) Steve Scherf et al.
# Submitted via: dBpowerAMP V12.0
#
DISCID=c50b170e
DTITLE=Luke Winslow-King - Everlasting Arms
DYEAR=1900
DGENRE=AAA,Alternative,Triple A
TTITLE0=Everlasting Arms
TTITLE1=Swing That Thing
TTITLE2=I'm Your Levee Man
TTITLE3=Graveyard Blues
TTITLE4=Cadillac Slim
TTITLE5=La Bega's Carousel
TTITLE6=The Crystal Water Springs
TTITLE7=Wanton Way of Loving
TTITLE8=Interlude I (As it Goes)
TTITLE9=Last Night I Dreramed My Birthday 
TTITLE10=Domino Sugar
TTITLE11=Interlude II
TTITLE12=Home Blues
TTITLE13=Travelling Myself
EXTD=
EXTT0=
EXTT1=
EXTT2=
EXTT3=
EXTT4=
EXTT5=
EXTT6=
EXTT7=
EXTT8=
EXTT9=
EXTT10=
EXTT11=
EXTT12=
EXTT13=
PLAYORDER=
